<svg width="24" height="24" viewBox="0 0 24 24" fill="none" xmlns="http://www.w3.org/2000/svg">
<path fill-rule="evenodd" clip-rule="evenodd" d="M23.5123 8.6046C23.4684 8.45601 23.4228 8.30859 23.3736 8.16247H15.8372V0.626615C15.6914 0.577527 15.5442 0.531734 15.3956 0.488081C14.3186 0.17082 13.1794 0 12 0C10.8206 0 9.68137 0.17082 8.60475 0.488081C8.45601 0.531734 8.30875 0.577527 8.1628 0.626615V8.16247H0.626768C0.577516 8.30826 0.531889 8.45601 0.488238 8.60394C0.171148 9.68091 0 10.8203 0 11.9998C0 13.1794 0.171148 14.3188 0.488238 15.3957C0.531889 15.5443 0.577516 15.6914 0.626933 15.8374H8.1628V23.3732C8.30875 23.4225 8.45634 23.4681 8.60475 23.5119C9.68137 23.8292 10.8206 24 12 24C13.1794 24 14.3186 23.8292 15.3956 23.5119C15.5442 23.4681 15.6914 23.4225 15.8372 23.3732V15.8374H23.3732C23.4228 15.6912 23.4681 15.544 23.5123 15.3954C23.8292 14.3186 24 13.1792 24 11.9998C24 10.8205 23.8292 9.68108 23.5123 8.6046Z" fill="#284B96"/>
</svg>
