<svg width="24" height="24" viewBox="0 0 24 24" fill="currentColor" xmlns="http://www.w3.org/2000/svg">
<path d="M12 24C18.6281 24 24 18.6281 24 12C24 5.37188 18.6281 0 12 0C5.37188 0 0 5.37188 0 12C0 18.6281 5.37188 24 12 24ZM14.3766 15.2391L7.6125 17.8406C6.70312 18.1922 5.80781 17.2969 6.15937 16.3875L8.76094 9.62344C8.91562 9.225 9.225 8.91562 9.62344 8.76094L16.3875 6.15937C17.2969 5.80781 18.1922 6.70312 17.8406 7.6125L15.2391 14.3766C15.0891 14.775 14.775 15.0844 14.3766 15.2391ZM13.5 12C13.5 11.1703 12.8297 10.5 12 10.5C11.1703 10.5 10.5 11.1703 10.5 12C10.5 12.8297 11.1703 13.5 12 13.5C12.8297 13.5 13.5 12.8297 13.5 12Z" fill="#284B96"/>
</svg>
