<svg width="24" height="24" viewBox="0 0 24 24" fill="none" xmlns="http://www.w3.org/2000/svg">
<path d="M9.21858 2.33333C9.21858 1.04583 10.2415 0 11.5009 0C12.7602 0 13.7832 1.04583 13.7832 2.33333C13.7832 3.62083 12.7602 4.66667 11.5009 4.66667C10.2415 4.66667 9.21858 3.62083 9.21858 2.33333ZM8.24045 17.3333H7.18896C6.74472 17.3333 6.43091 16.8875 6.56947 16.4542L8.32196 11.0792L6.35347 13.7917C5.92554 14.3833 5.10636 14.5083 4.52763 14.0667C3.9489 13.625 3.82664 12.7917 4.25864 12.2L7.1319 8.24167C8.15893 6.83333 9.77692 6 11.5009 6C13.2248 6 14.8428 6.83333 15.8699 8.24583L18.7431 12.2042C19.171 12.7958 19.0529 13.6292 18.4741 14.0708C17.8954 14.5125 17.0803 14.3875 16.6483 13.7958L14.6798 11.0833L16.4323 16.4542C16.5749 16.8875 16.257 17.3333 15.8128 17.3333H14.7613V22.6667C14.7613 23.4042 14.1785 24 13.4571 24C12.7358 24 12.153 23.4042 12.153 22.6667V17.3333H10.8488V22.6667C10.8488 23.4042 10.266 24 9.54462 24C8.82325 24 8.24045 23.4042 8.24045 22.6667V17.3333Z" fill="#284B96"/>
</svg>
