<svg width="24" height="24" viewBox="0 0 24 24" fill="currentColor" xmlns="http://www.w3.org/2000/svg">
<path d="M11.998 1C11.444 1 10.9982 1.44583 10.9982 2V2.5H10.9232C9.39847 2.5 8.16534 3.7375 8.16534 5.25833C8.16534 6.65 9.20267 7.825 10.5816 7.99583L13.1229 8.3125C13.3353 8.3375 13.4978 8.52083 13.4978 8.7375C13.4978 8.975 13.3062 9.1625 13.0729 9.1625L9.99837 9.16667C9.35265 9.16667 8.8319 9.6875 8.8319 10.3333C8.8319 10.9792 9.35265 11.5 9.99837 11.5H10.9982V12C10.9982 12.5542 11.444 13 11.998 13C12.5521 13 12.9979 12.5542 12.9979 12V11.5H13.0729C14.5976 11.5 15.8308 10.2625 15.8308 8.74167C15.8308 7.35 14.7934 6.175 13.4145 6.00417L10.8732 5.6875C10.6608 5.6625 10.4983 5.47917 10.4983 5.2625C10.4983 5.025 10.6899 4.8375 10.9232 4.8375L13.6644 4.83333C14.3102 4.83333 14.8309 4.3125 14.8309 3.66667C14.8309 3.02083 14.3102 2.5 13.6644 2.5H12.9979V2C12.9979 1.44583 12.5521 1 11.998 1ZM4.55343 15.8958L2.77871 17.6667H1.33312C0.595736 17.6667 0 18.2625 0 19V21.6667C0 22.4042 0.595736 23 1.33312 23H14.6851C15.8932 23 17.0722 22.6125 18.0471 21.8958L23.3212 18.0083C24.0628 17.4625 24.2211 16.4208 23.6753 15.6792C23.1296 14.9375 22.0881 14.7792 21.3465 15.325L16.3557 19H11.6648C11.1107 19 10.6649 18.5542 10.6649 18C10.6649 17.4458 11.1107 17 11.6648 17H14.6643C15.4017 17 15.9974 16.4042 15.9974 15.6667C15.9974 14.9292 15.4017 14.3333 14.6643 14.3333H8.32365C6.91138 14.3333 5.55326 14.8958 4.55343 15.8958Z" fill="#284B96"/>
</svg>
