<svg width="24" height="24" viewBox="0 0 24 24" fill="none" xmlns="http://www.w3.org/2000/svg">
<path d="M16.5 5H19.5C20.3297 5 21 5.67031 21 6.5V18.5C21 19.3297 20.3297 20 19.5 20H16.5C15.6703 20 15 20.6703 15 21.5C15 22.3297 15.6703 23 16.5 23H19.5C21.9844 23 24 20.9844 24 18.5V6.5C24 4.01562 21.9844 2 19.5 2H16.5C15.6703 2 15 2.67031 15 3.5C15 4.32969 15.6703 5 16.5 5ZM16.0594 13.5594C16.6453 12.9734 16.6453 12.0219 16.0594 11.4359L10.0594 5.43594C9.47344 4.85 8.52188 4.85 7.93594 5.43594C7.35 6.02188 7.35 6.97344 7.93594 7.55938L11.3766 11H1.5C0.670312 11 0 11.6703 0 12.5C0 13.3297 0.670312 14 1.5 14H11.3766L7.93594 17.4406C7.35 18.0266 7.35 18.9781 7.93594 19.5641C8.52188 20.15 9.47344 20.15 10.0594 19.5641L16.0594 13.5641V13.5594Z" fill="#284B96"/>
</svg>
