<?xml version="1.0" encoding="UTF-8"?>
<svg id="Layer_2" data-name="Layer 2" xmlns="http://www.w3.org/2000/svg" viewBox="0 0 72.18 360.97">
  <defs>
    <style>
      .cls-1 {
        fill: #b2494d;
      }

      .cls-2 {
        fill: #284b96;
        stroke: #284b96;
        stroke-miterlimit: 10;
      }

      .cls-3 {
        fill: #3da1e8;
      }

      .cls-4 {
        fill: #ffa68a;
      }
    </style>
  </defs>
  <g id="pige_uden_arme" data-name="pige uden arme">
    <g id="pige_uden_arme-2" data-name="pige uden arme">
      <g>
        <g>
          <path class="cls-1" d="M30.01,1.64c-5.44-.44-10.47,3.6-12.84,8.51-2.38,4.92-2.64,10.56-2.73,16.02-.09,5.46-.07,11.06-1.94,16.18-.38,1.05-.85,2.09-.88,3.21-.07,2.1,1.37,3.92,2.67,5.57.12.16.25.33.28.53.07.46-.39.82-.76,1.1-2.28,1.73-3.15,4.9-2.66,7.72.21,1.19.64,2.37,1.43,3.29.76.89,1.81,1.48,2.86,2,2.47,1.22,5.11,2.15,7.85,2.39,5.33.48,10.56-1.64,15.9-1.84,3.47-.13,6.92.55,10.39.79,3.47.24,7.13-.02,10.09-1.83,1.3-.8,2.48-1.97,2.8-3.46.32-1.49-.5-3.28-1.99-3.61.76-.8,1.51-1.69,1.69-2.78s-.43-2.38-1.52-2.55c1.79-1.75.89-5.34-1.51-6.04,1.54-1.78,2.9-4.14,2.21-6.39-.41-1.35-1.49-2.37-2.37-3.48-.88-1.11-1.62-2.54-1.19-3.89.25-.79.85-1.4,1.29-2.1.44-.7.7-1.65.22-2.32-.42-.6-1.29-.78-1.67-1.41-.7-1.16.79-2.44.99-3.78.37-2.41-3.29-3.63-3.67-6.03-.2-1.23.54-2.49.26-3.7-.15-.65-.58-1.2-1-1.72C49.76,6.51,44.22,1.2,37.23.15c-2.54-.38-5.33-.09-7.22,1.49Z"/>
          <g>
            <path d="M57.61,63.51c-1.79,0-3.48-1.4-3.74-3.19-.1-.66,0-1.32.27-1.93-.62-.26-1.18-.74-1.58-1.39-.58-.96-.73-2.11-.8-3-.05-.77-.06-1.79.33-2.65-.07-.23-.12-.47-.13-.7-.04-.85.24-1.77.88-2.8.19-.31.4-.61.61-.92.32-.47.65-.95.91-1.45.84-1.64,1.01-3.77.49-6-.48-2.03-1.43-3.94-2.35-5.79-.06-.12-.01-.27.11-.34.12-.06.27-.01.33.11.94,1.87,1.9,3.81,2.39,5.9.55,2.35.36,4.6-.53,6.34-.27.53-.61,1.03-.94,1.5-.2.3-.41.59-.59.9-.58.94-.85,1.77-.81,2.51,0,.04,0,.07,0,.11.06-.07.12-.15.2-.22.52-.52,1.4-.71,2.15-.47.58.19.97.61,1.06,1.14.08.48-.1.96-.5,1.33-.46.43-1.09.61-1.65.47-.58-.14-1.03-.52-1.33-1-.14.53-.18,1.17-.13,1.97.06.83.2,1.9.73,2.78.34.57.84.99,1.37,1.2.56-.95,1.5-1.67,2.61-1.85.14-.02.26.07.29.2.09.49-.05,1.01-.4,1.44-.4.5-.99.82-1.6.85-.21.01-.42,0-.63-.05-.24.53-.34,1.12-.26,1.7.24,1.65,1.96,2.96,3.61,2.74.13-.02.26.08.28.22s-.08.26-.22.28c-.14.02-.29.03-.43.03ZM54.88,58.08c.12.02.23.02.35.01.46-.03.93-.28,1.24-.66.19-.24.3-.51.32-.78-.78.21-1.46.75-1.9,1.43ZM52.63,51.38c.21.53.62.99,1.2,1.13.39.09.86-.04,1.2-.35.27-.25.4-.58.35-.89-.08-.48-.48-.67-.72-.75-.57-.19-1.26-.04-1.65.34-.15.15-.28.32-.38.51Z"/>
            <path d="M17.72,61.64c-.39,0-.79-.12-1.11-.36-.4-.29-.62-.72-.59-1.17.06-.87.91-1.4,1.68-1.62.65-.18,1.33-.22,2-.14.16-1.27-.05-2.59-.61-3.73-.03-.07-.07-.14-.11-.21-.34.54-.82.93-1.37,1.07-.54.13-1.18-.04-1.62-.45-.37-.35-.54-.8-.47-1.25.07-.39.31-.73.68-.96.45-.28,1.04-.35,1.53-.2.42.13.8.39,1.14.77.02-.06.03-.12.04-.18.23-1.18-.11-2.51-1.04-4.07-.25-.43-.53-.84-.81-1.26-.55-.82-1.12-1.68-1.51-2.61-.7-1.69-.62-3.38.21-4.53.08-.11.24-.13.35-.06.11.08.14.24.06.35-.73,1.01-.79,2.52-.15,4.04.37.89.93,1.73,1.46,2.53.28.42.56.84.82,1.28,1,1.67,1.35,3.11,1.1,4.42-.04.2-.09.39-.16.57.1.16.2.34.3.52.61,1.23.84,2.67.66,4.04.67.14,1.3.41,1.87.8.11.08.14.23.07.35-.08.12-.23.14-.35.07-.5-.35-1.08-.59-1.67-.72-.02.1-.05.21-.07.31-.17.67-.63,1.86-1.71,2.29-.19.08-.4.11-.61.11ZM19.07,58.81c-.42,0-.83.05-1.24.17-.58.16-1.27.56-1.31,1.17-.02.37.23.62.38.73.36.26.86.34,1.24.19.87-.34,1.25-1.37,1.4-1.95.02-.09.04-.18.06-.27-.18-.02-.36-.03-.54-.03ZM17.19,53.03c-.26,0-.52.07-.74.2-.25.15-.41.37-.45.62-.06.38.17.66.31.8.32.29.78.42,1.16.33.56-.14.95-.58,1.19-1.06-.28-.36-.64-.69-1.09-.83-.12-.04-.25-.06-.38-.06Z"/>
          </g>
        </g>
        <g id="krop">
          <path id="krop-2" data-name="krop" class="cls-4" d="M38.2,194.21c-1.17-.02-2.35-.04-3.52-.06"/>
          <path id="torso" class="cls-4" d="M.44,194.92c-.77-9.13-.53-18.38.74-27.48.51-3.65,1.19-7.28,2.16-10.84,2.32-8.52,6.29-16.49,10.29-24.36.53-12.66-4.04-24.98-3.17-37.47l7.66-26.86c3.29-1.36,6.36-3.25,9.05-5.57h17.83c2.7,2.32,5.76,4.21,9.05,5.57l7.66,26.86c.87,12.48-3.7,24.81-3.17,37.47,4.01,7.87,7.97,15.84,10.29,24.36.97,3.56,1.65,7.19,2.16,10.84,1.27,9.1,1.51,18.35.74,27.48"/>
          <g id="ben">
            <path id="ben-2" data-name="ben" class="cls-4" d="M33.98,194.21c.52,15.08.28,30.23-.6,45.35-.69,9.66-2.14,19.41-4.2,29.02-.17,5.68.88,11.45,1.26,17.24,1.02,15.75-3.02,31.49-2.16,47.25.06,2.42.24,4.08.2,6.46-.02,1.3.25,2.87,0,4.15-.36,1.81.52,3.81.72,5.64.27,2.46.54,4.91.81,7.37.13,1.14.18,2.47-.66,3.24-.4.36-.93.53-1.45.66-.67.16-1.38.27-2.04.08-.66-.19-1.26-.75-1.3-1.44-.31.57-.73,1.01-1.21,1.2-.48.2-1.02.19-1.54.15-.73-.06-1.46-.18-2.17-.37-1.3-.34-2.59-.91-3.93-.8-.88-.67-.98-2.14-.61-3.31.37-1.17,1.1-2.2,1.54-3.35.26-.68.42-1.4.55-2.12,1.25-6.83.37-13.85-.51-20.74-.45-3.53-.9-7.06-1.35-10.6-4.77-17.95-4.72-36.62-4.64-55.05.02-4.16.04-8.34.55-12.47-1.26-9.79-5.03-18.93-7.26-28.4-2.19-9.32-2.89-18.92-3.54-28.47"/>
            <path d="M24.17,359.6c-.13,0-.24-.1-.25-.24-.06-1.07.22-2.15.8-3.05.07-.12.23-.15.35-.07.12.07.15.23.07.35-.52.81-.78,1.78-.72,2.74,0,.14-.1.26-.23.26,0,0,0,0-.01,0Z"/>
            <path d="M21.74,360.97c-.08,0-.16-.04-.21-.11-.84-1.2-.8-2.91.1-4.07.08-.11.24-.13.35-.05.11.08.13.24.05.35-.75.97-.79,2.47-.08,3.48.08.11.05.27-.06.35-.04.03-.09.04-.14.04Z"/>
            <path d="M19.12,360.51c-.1,0-.2-.06-.24-.16-.49-1.23-.16-2.73.79-3.64.1-.1.26-.09.35,0,.1.1.09.26,0,.35-.81.78-1.08,2.06-.67,3.1.05.13-.01.27-.14.32-.03.01-.06.02-.09.02Z"/>
            <path d="M16.64,360.02c-.12,0-.22-.08-.25-.2-.24-1.27.21-2.67,1.15-3.56.1-.09.26-.09.35,0,.1.1.09.26,0,.35-.82.78-1.21,2-1,3.11.03.14-.06.27-.2.29-.01,0-.03,0-.04,0Z"/>
            <path d="M27,358.46c-.38,0-.75-.07-1.06-.13-.14-.03-.22-.16-.2-.29.03-.14.16-.22.29-.2.59.12,1.11.2,1.55,0,.23-.1.43-.34.5-.59.03-.1.04-.23-.02-.36-.58-.09-1.18-.03-1.74.18-.13.05-.27-.02-.32-.15-.05-.13.02-.27.15-.32.67-.25,1.4-.31,2.11-.18.06.01.12.04.15.09.18.24.24.55.15.86-.1.4-.41.76-.78.92-.26.11-.53.15-.8.16Z"/>
          </g>
          <g id="ben-3" data-name="ben">
            <path id="ben-4" data-name="ben" class="cls-4" d="M71.74,194.92c-.65,9.55-1.35,19.15-3.54,28.47-2.23,9.47-5.99,18.61-7.26,28.4.51,4.13.53,8.31.55,12.47.08,18.43.13,37.1-4.64,55.05-.45,3.53-.9,7.06-1.35,10.6-.88,6.89-1.75,13.91-.51,20.74.13.72.29,1.44.55,2.12.44,1.15,1.17,2.18,1.54,3.35.37,1.17.27,2.64-.61,3.31-1.34-.11-2.63.45-3.93.8-.71.19-1.44.31-2.17.37-.52.04-1.06.04-1.54-.15-.48-.2-.9-.63-1.21-1.2-.04.69-.64,1.25-1.3,1.44-.66.19-1.37.08-2.04-.08-.52-.13-1.05-.3-1.45-.66-.84-.78-.79-2.1-.66-3.24.27-2.46.54-4.91.81-7.37.2-1.83.54-2.76.18-4.57-.25-1.27.3-3.63.28-4.93-.04-2.39.4-4.34.46-6.76.86-15.76-3.18-31.5-2.16-47.25.37-5.78,1.43-11.56,1.26-17.24-2.07-9.61-3.51-19.36-4.2-29.02-.89-15.11-1.12-30.26-.6-45.35"/>
            <path d="M49.61,359.33s0,0-.01,0c-.14,0-.25-.12-.24-.26.03-.96-.24-1.93-.79-2.73-.08-.11-.05-.27.07-.35.11-.08.27-.05.35.07.6.88.91,1.96.87,3.03,0,.13-.11.24-.25.24Z"/>
            <path d="M52.06,360.64s-.1-.01-.14-.04c-.12-.08-.15-.23-.07-.35.68-1.02.61-2.52-.16-3.47-.09-.11-.07-.26.04-.35.11-.09.27-.07.35.04.92,1.14,1,2.85.19,4.06-.05.07-.13.11-.21.11Z"/>
            <path d="M54.67,360.12s-.06,0-.09-.02c-.13-.05-.2-.19-.15-.32.39-1.05.08-2.32-.74-3.08-.1-.09-.11-.25-.01-.35.09-.1.25-.11.35-.01.97.9,1.33,2.39.87,3.62-.04.1-.13.16-.23.16Z"/>
            <path d="M57.15,359.57s-.03,0-.04,0c-.14-.02-.23-.15-.21-.29.19-1.11-.23-2.32-1.07-3.08-.1-.09-.11-.25-.02-.35.09-.1.25-.11.35-.02.96.87,1.44,2.26,1.23,3.54-.02.12-.12.21-.24.21Z"/>
            <path d="M46.75,358.26c-.27,0-.54-.03-.8-.14-.38-.15-.69-.51-.8-.9-.09-.32-.04-.63.13-.87.04-.05.09-.09.15-.1.7-.14,1.43-.1,2.11.14.13.04.2.19.16.32-.04.13-.19.2-.32.16-.56-.19-1.16-.24-1.74-.14-.06.13-.04.26-.01.36.07.25.28.48.51.58.44.18.97.09,1.55-.04.13-.03.27.06.3.19.03.13-.05.27-.19.3-.3.07-.67.15-1.05.15Z"/>
          </g>
          <path id="krop-3" data-name="krop" class="cls-4" d="M37.5,194.16c-1.17.02-2.35.04-3.52.06"/>
        </g>
        <path id="hoved" class="cls-4" d="M27.18,62.34c.88-.88,1.25-4.87,1.42-6.78.12-1.37.16-2.69.33-4.06.15-1.26.25-2.57-.23-3.74-2.2-1.93-4.51-4.23-5.62-7.14-.75-1.96-.9-4.1-.97-6.2-.07-2.32-.04-4.64-.01-6.96.04-2.92.07-5.84.11-8.76.77.13,1.6-.06,2.27-.48.39-.25.75-.59,1.21-.67.31-.05.63.02.94.08.94.15,1.92.07,2.82-.24.21-.07.42-.16.64-.15.19,0,.38.08.56.15.83.29,1.74.32,2.58.08.51-3.35,2.5-9.73,2.5-9.73,1.37,3.09,2.31,6.38,2.81,9.73.84.23,1.75.21,2.58-.08.18-.06.37-.14.56-.15.22,0,.43.08.64.15.9.31,1.88.39,2.82.24.31-.05.63-.13.94-.08.46.08.82.42,1.21.67.67.43,1.5.61,2.27.48.04,2.92.07,5.84.11,8.76.03,2.32.06,4.64-.01,6.96-.06,2.1-.22,4.24-.97,6.2-1.11,2.92-3.43,5.21-5.62,7.14-.48,1.17-.38,2.49-.23,3.74.16,1.36.44,2.71.64,4.06.19,1.27.66,5.89,1.53,6.77"/>
        <g id="ansigt">
          <path d="M34.9,41.3c-.23,0-.45,0-.68-.03-1.49-.13-2.73-.72-3.51-1.66-.09-.11-.07-.26.04-.35s.26-.07.35.04c.68.83,1.83,1.37,3.16,1.48,1.23.11,2.48-.13,3.69-.35.76-.14,1.53-.32,1.92-.88.08-.12.23-.14.35-.06.11.08.14.23.06.35-.49.71-1.38.93-2.24,1.09-1.02.19-2.08.38-3.14.38Z"/>
          <g>
            <path d="M38.02,24.26c-.08,0-.15-.03-.2-.1-.08-.11-.06-.27.05-.35,2.07-1.56,5-1.8,7.29-.61.12.06.17.21.11.34-.06.12-.21.17-.34.11-2.13-1.11-4.84-.88-6.76.56-.05.03-.1.05-.15.05Z"/>
            <circle cx="41.65" cy="28.39" r=".94"/>
          </g>
          <g>
            <path d="M26.02,24.26c-.08,0-.15-.03-.2-.1-.08-.11-.06-.27.05-.35,2.07-1.56,4.99-1.8,7.29-.61.12.06.17.21.11.34-.06.12-.21.17-.34.11-2.13-1.11-4.84-.88-6.76.56-.05.03-.1.05-.15.05Z"/>
            <circle cx="29.65" cy="28.39" r=".94"/>
          </g>
          <path d="M35.7,34.96h-3.28c-.07,0-.14-.03-.19-.09-.05-.06-.07-.13-.06-.2l1.44-8.48c.02-.14.16-.22.29-.2.14.02.23.15.2.29l-1.39,8.19h2.99c.14,0,.25.11.25.25s-.11.25-.25.25Z"/>
        </g>
        <path id="badedragt" class="cls-3" d="M46.9,175.07c4.59-8.06,11.01-17.26,19.66-25.54-2.24-5.91-5.07-11.6-7.94-17.24-.52-12.26,3.75-24.22,3.22-36.3-1.08-9.33-2.89-20.49-4.95-26.99-.93-.32-1.85-.66-2.76-1.03-1.13-.47-2.21-1.02-3.28-1.6-.38,3.8-.84,7.6-1.39,11.38-.42,1.15-1.35,2.29-2.25,3.4-4.05,5.03-7.72,10.37-10.97,15.96-3.77-5.15-7.6-10.29-11.43-15.44-.53-.72-1.07-1.44-1.45-2.25-.41-.88-.63-1.83-.85-2.78-.74-3.22-1.48-6.44-2.21-9.65-.69.34-1.39.67-2.1.97-1.1.46-2.22.85-3.35,1.24-1.3,7.9-4.61,26.95-4.31,25.62-.87,12.48,3.7,24.81,3.17,37.47-3.19,6.27-6.34,12.6-8.67,19.22,4.59,4.08,8.2,9.14,11.75,14.17,6.46,9.15,12.96,18.38,17.59,28.58.6,0,1.19-.02,1.79-.03-.47,0-.94-.02-1.41-.02h2.82l-1.41.02c.63.01,1.26.02,1.89.03.82-2.35,2.38-6.45,4.83-11.52,1.21-2.62,2.57-5.18,4.03-7.68Z"/>
        <path d="M28.43,47.6s6.5,5.67,15.26-.06c0,0-8.2,14.97-15.26.06Z"/>
      </g>
      <path id="logo" class="cls-2" d="M49.57,93.69v-2.65s1.11-.48,2.69,0v2.65h2.57s.5,1.33,0,2.67h-2.63l.02,2.59s-1.09.54-2.65,0v-2.63h-2.67s-.4-1.33,0-2.67l2.67.04Z"/>
    </g>
  </g>
</svg>