<?xml version="1.0" encoding="UTF-8"?>
<svg id="Lag_2" xmlns="http://www.w3.org/2000/svg" version="1.1" viewBox="0 0 96.5 361">
  <!-- Generator: Adobe Illustrator 29.8.2, SVG Export Plug-In . SVG Version: 2.1.1 Build 3)  -->
  <defs>
    <style>
      .st0 {
        fill: #284b96;
        stroke: #284b96;
        stroke-miterlimit: 10;
      }

      .st1 {
        fill: #3da1e8;
      }

      .st2 {
        fill: #ffa68a;
      }

      .st3 {
        fill: #b2494d;
      }
    </style>
  </defs>
  <g id="pige_uden_ben">
    <g id="pige_uden_ben-2">
      <g>
        <g>
          <path class="st3" d="M42.8,1.6c-5.4-.4-10.5,3.6-12.8,8.5s-2.6,10.6-2.7,16c0,5.5,0,11.1-1.9,16.2-.4,1-.9,2.1-.9,3.2,0,2.1,1.4,3.9,2.7,5.6.1.2.2.3.3.5,0,.5-.4.8-.8,1.1-2.3,1.7-3.1,4.9-2.7,7.7.2,1.2.6,2.4,1.4,3.3.8.9,1.8,1.5,2.9,2,2.5,1.2,5.1,2.2,7.9,2.4,5.3.5,10.6-1.6,15.9-1.8,3.5-.1,6.9.6,10.4.8s7.1,0,10.1-1.8c1.3-.8,2.5-2,2.8-3.5.3-1.5-.5-3.3-2-3.6.8-.8,1.5-1.7,1.7-2.8s-.4-2.4-1.5-2.5c1.8-1.8.9-5.3-1.5-6,1.5-1.8,2.9-4.1,2.2-6.4-.4-1.3-1.5-2.4-2.4-3.5-.9-1.1-1.6-2.5-1.2-3.9.2-.8.8-1.4,1.3-2.1s.7-1.6.2-2.3c-.4-.6-1.3-.8-1.7-1.4-.7-1.2.8-2.4,1-3.8.4-2.4-3.3-3.6-3.7-6-.2-1.2.5-2.5.3-3.7-.2-.6-.6-1.2-1-1.7C62.6,6.5,57.1,1.2,50.1.2c-2.5-.4-5.3,0-7.2,1.5h0Z"/>
          <g>
            <path d="M70.4,63.5c-1.8,0-3.5-1.4-3.7-3.2,0-.7,0-1.3.3-1.9-.6-.3-1.2-.7-1.6-1.4-.6-1-.7-2.1-.8-3,0-.8,0-1.8.3-2.7,0-.2-.1-.5-.1-.7,0-.8.2-1.8.9-2.8.2-.3.4-.6.6-.9.3-.5.7-1,.9-1.5.8-1.6,1-3.8.5-6-.5-2-1.4-3.9-2.3-5.8,0-.1,0-.3.1-.3.1,0,.3,0,.3.1.9,1.9,1.9,3.8,2.4,5.9.6,2.3.4,4.6-.5,6.3-.3.5-.6,1-.9,1.5-.2.3-.4.6-.6.9-.6.9-.8,1.8-.8,2.5h0c0,0,.1,0,.2-.1.5-.5,1.4-.7,2.2-.5.6.2,1,.6,1.1,1.1,0,.5,0,1-.5,1.3-.5.4-1.1.6-1.7.5-.6-.1-1-.5-1.3-1-.1.5-.2,1.2-.1,2,0,.8.2,1.9.7,2.8.3.6.8,1,1.4,1.2.6-1,1.5-1.7,2.6-1.8.1,0,.3,0,.3.2,0,.5,0,1-.4,1.4-.4.5-1,.8-1.6.8-.2,0-.4,0-.6,0-.2.5-.3,1.1-.3,1.7.2,1.7,2,3,3.6,2.7.1,0,.3,0,.3.2s0,.3-.2.3-.3,0-.4,0h0ZM67.7,58.1c.1,0,.2,0,.3,0,.5,0,.9-.3,1.2-.7.2-.2.3-.5.3-.8-.8.2-1.5.8-1.9,1.4h0ZM65.5,51.4c.2.5.6,1,1.2,1.1.4,0,.9,0,1.2-.3.3-.2.4-.6.3-.9,0-.5-.5-.7-.7-.8-.6-.2-1.3,0-1.7.3-.2.2-.3.3-.4.5h0Z"/>
            <path d="M30.6,61.6c-.4,0-.8-.1-1.1-.4-.4-.3-.6-.7-.6-1.2,0-.9.9-1.4,1.7-1.6.6-.2,1.3-.2,2-.1.2-1.3,0-2.6-.6-3.7,0,0,0-.1-.1-.2-.3.5-.8.9-1.4,1.1-.5.1-1.2,0-1.6-.5-.4-.3-.5-.8-.5-1.2,0-.4.3-.7.7-1,.5-.3,1-.3,1.5-.2.4.1.8.4,1.1.8,0,0,0-.1,0-.2.2-1.2-.1-2.5-1-4.1-.2-.4-.5-.8-.8-1.3-.5-.8-1.1-1.7-1.5-2.6-.7-1.7-.6-3.4.2-4.5,0-.1.2-.1.4,0,.1,0,.1.2,0,.3-.7,1-.8,2.5-.1,4,.4.9.9,1.7,1.5,2.5.3.4.6.8.8,1.3,1,1.7,1.3,3.1,1.1,4.4,0,.2,0,.4-.2.6,0,.2.2.3.3.5.6,1.2.8,2.7.7,4,.7.1,1.3.4,1.9.8.1,0,.1.2,0,.3,0,.1-.2.1-.3,0-.5-.3-1.1-.6-1.7-.7,0,0,0,.2,0,.3-.2.7-.6,1.9-1.7,2.3-.2,0-.4.1-.6.1h0ZM31.9,58.8c-.4,0-.8,0-1.2.2-.6.2-1.3.6-1.3,1.2,0,.4.2.6.4.7.4.3.9.3,1.2.2.9-.3,1.2-1.4,1.4-2v-.3c-.1,0-.3,0-.5,0h0ZM30,53c-.3,0-.5,0-.7.2-.2.2-.4.4-.5.6,0,.4.2.7.3.8.3.3.8.4,1.2.3.6-.1,1-.6,1.2-1.1-.3-.4-.6-.7-1.1-.8-.1,0-.2,0-.4,0Z"/>
          </g>
        </g>
        <g id="krop">
          <path id="krop-2" class="st2" d="M51,194.2c-1.2,0-2.3,0-3.5,0"/>
          <path id="torso" class="st2" d="M13.3,194.9c-.8-9.1-.5-18.4.7-27.5.5-3.6,1.2-7.3,2.2-10.8,2.3-8.5,6.3-16.5,10.3-24.4.5-12.7-4-25-3.2-37.5l7.7-26.9c3.3-1.4,6.4-3.2,9.1-5.6h17.8c2.7,2.3,5.8,4.2,9.1,5.6l7.7,26.9c.9,12.5-3.7,24.8-3.2,37.5,4,7.9,8,15.8,10.3,24.4,1,3.6,1.7,7.2,2.2,10.8,1.3,9.1,1.5,18.4.7,27.5"/>
          <path id="krop-3" class="st2" d="M50.3,194.2c-1.2,0-2.3,0-3.5,0"/>
          <g id="arm">
            <path id="arm-2" class="st2" d="M30.2,67.9c-2.6,1.1-5.3,1.8-7.9,2.9-2.6,1.1-5.1,2.5-6.9,4.6-1.4,1.7-2.3,3.7-3.1,5.7-1.9,5.1-2.8,10.6-2.8,16.1-.1,7-.2,14-.3,20.9,0,1.7,0,3.4-.7,5.1-1.4,4.5-2.8,9-3.5,13.6-.6,3.8-.8,7.6-.9,11.3-.4,8.3-.7,16.6-1.1,24.9-.6,6.3-1.4,12.5-2.3,18.8-.5,3.9-1.1,7.9-.3,11.7.2,1.1.6,2.2,1.3,3.2.9,1.3,2.2,2.3,3.5,3.1,1.6,1,3.2,1.8,4.8,2.5.5-.2,1-.5,1.1-1,.2-.7-.3-1.4-.8-1.8s-1.2-.8-1.5-1.5c-.2-.3-.2-.7-.3-1-.1-.8-.2-1.6-.4-2.4-.3-1.8-.5-3.6-.4-5.4.9.7,1.2,1.9,1.3,3.1.1.9.2,1.8.4,2.7,0,.4.1.9.4,1.2s.8.6,1.2.3c.4-.2.4-.7.4-1.1,0-3.6.1-7.3-.8-10.8-.6-2.4-1.6-4.8-1.4-7.2.6-10.5,1.3-21.1,3.9-31.2.9-3.5,2-6.9,3-10.4,3.2-9.2,2.2-19.2,3-28.8.7-7.5,1.8-14.9,3.5-22.3"/>
            <path d="M7.6,211.4c0,0-.2,0-.2-.1-1.9-3.2-2.8-7-2.4-10.7,0-.1.1-.2.3-.2.1,0,.2.1.2.3-.4,3.6.4,7.3,2.3,10.4,0,.1,0,.3,0,.3,0,0,0,0-.1,0h0Z"/>
            <path d="M3.4,208.5c0,0-.2,0-.2-.1-1.1-2.5-1.3-5.3-.6-7.9,0-.1.2-.2.3-.2.1,0,.2.2.2.3-.6,2.5-.4,5.2.6,7.5,0,.1,0,.3-.1.3,0,0,0,0,0,0h0Z"/>
          </g>
          <g id="arm-3">
            <path id="arm-4" class="st2" d="M67.1,68.2c2.6,1.1,4.5,1.8,7.1,2.9s5.1,2.5,6.9,4.6c1.4,1.7,2.3,3.7,3.1,5.7,1.9,5.1,2.8,10.6,2.8,16.1.1,7,.2,14,.3,20.9,0,1.7,0,3.4.7,5.1,1.4,4.5,2.8,9,3.5,13.6.6,3.8.8,7.6.9,11.3.4,8.3.7,16.6,1.1,24.9.6,6.3,1.4,12.5,2.3,18.8.5,3.9,1.1,7.9.3,11.7-.2,1.1-.6,2.2-1.2,3.2-.9,1.3-2.2,2.3-3.5,3.1-1.6,1-3.2,1.8-4.8,2.5-.5-.2-1-.5-1.1-1-.2-.7.3-1.4.8-1.8.6-.4,1.2-.8,1.5-1.5s.2-.7.3-1c.1-.8.2-1.6.4-2.4.3-1.8.5-3.6.4-5.4-.9.7-1.2,1.9-1.3,3.1-.1.9-.2,1.8-.4,2.7,0,.4-.1.9-.4,1.2-.3.4-.8.6-1.2.3-.4-.2-.4-.7-.4-1.1,0-3.6-.1-7.3.8-10.8.6-2.4,1.6-4.8,1.4-7.2-.6-10.5-1.3-21.1-3.9-31.2-.9-3.5-2-6.9-3-10.4-3.2-9.2-2.2-19.2-2.9-28.8-.7-7.5-1-14.9-2.7-22.3"/>
            <path d="M94.5,207.4h0c-.1,0-.2-.1-.2-.3.2-2.4.2-4.7-.2-7.1,0-.1,0-.3.2-.3.1,0,.3,0,.3.2.4,2.4.5,4.8.2,7.2,0,.1-.1.2-.2.2h0Z"/>
            <path d="M91.2,210.3h0c-.1,0-.2-.2-.2-.3.7-3.2,1-6.6.8-9.9,0-.1,0-.3.2-.3.1,0,.3.1.3.2.2,3.4,0,6.7-.8,10,0,.1-.1.2-.2.2h0Z"/>
          </g>
        </g>
        <path id="hoved" class="st2" d="M40,62.3c.9-.9,1.2-4.9,1.4-6.8.1-1.4.2-2.7.3-4.1.2-1.3.2-2.6-.2-3.7-2.2-1.9-4.5-4.2-5.6-7.1-.8-2-.9-4.1-1-6.2,0-2.3,0-4.6,0-7,0-2.9,0-5.8.1-8.8.8.1,1.6,0,2.3-.5.4-.2.8-.6,1.2-.7.3,0,.6,0,.9,0,.9.1,1.9,0,2.8-.2.2,0,.4-.2.6-.1.2,0,.4,0,.6.1.8.3,1.7.3,2.6,0,.5-3.4,2.5-9.7,2.5-9.7,1.4,3.1,2.3,6.4,2.8,9.7.8.2,1.8.2,2.6,0,.2,0,.4-.1.6-.1.2,0,.4,0,.6.1.9.3,1.9.4,2.8.2.3,0,.6-.1.9,0,.5,0,.8.4,1.2.7.7.4,1.5.6,2.3.5,0,2.9,0,5.8.1,8.8,0,2.3,0,4.6,0,7,0,2.1-.2,4.2-1,6.2-1.1,2.9-3.4,5.2-5.6,7.1-.5,1.2-.4,2.5-.2,3.7.2,1.4.4,2.7.6,4.1.2,1.3.7,5.9,1.5,6.8"/>
        <g id="ansigt">
          <path d="M47.7,41.3c-.2,0-.5,0-.7,0-1.5-.1-2.7-.7-3.5-1.7,0-.1,0-.3,0-.3s.3,0,.3,0c.7.8,1.8,1.4,3.2,1.5,1.2.1,2.5-.1,3.7-.3.8-.1,1.5-.3,1.9-.9,0-.1.2-.1.3,0,.1,0,.1.2,0,.3-.5.7-1.4.9-2.2,1.1-1,.2-2.1.4-3.1.4h0Z"/>
          <g>
            <path d="M50.9,24.3c0,0-.2,0-.2-.1,0-.1,0-.3,0-.4,2.1-1.6,5-1.8,7.3-.6.1,0,.2.2.1.3,0,.1-.2.2-.3.1-2.1-1.1-4.8-.9-6.8.6,0,0,0,0-.2,0Z"/>
            <circle cx="54.5" cy="28.4" r=".9"/>
          </g>
          <g>
            <path d="M38.9,24.3c0,0-.2,0-.2-.1,0-.1,0-.3,0-.4,2.1-1.6,5-1.8,7.3-.6.1,0,.2.2.1.3,0,.1-.2.2-.3.1-2.1-1.1-4.8-.9-6.8.6,0,0,0,0-.2,0Z"/>
            <circle cx="42.5" cy="28.4" r=".9"/>
          </g>
          <path d="M48.5,35h-3.3c0,0-.1,0-.2,0s0-.1,0-.2l1.4-8.5c0-.1.2-.2.3-.2.1,0,.2.1.2.3l-1.4,8.2h3c.1,0,.2.1.2.2s-.1.2-.2.2h0Z"/>
        </g>
        <path id="badedragt" class="st1" d="M59.7,175.1c4.6-8.1,11-17.3,19.7-25.5-2.2-5.9-5.1-11.6-7.9-17.2-.5-12.3,3.8-24.2,3.2-36.3-1.1-9.3-2.9-20.5-4.9-27-.9-.3-1.8-.7-2.8-1-1.1-.5-2.2-1-3.3-1.6-.4,3.8-.8,7.6-1.4,11.4-.4,1.2-1.3,2.3-2.2,3.4-4,5-7.7,10.4-11,16-3.8-5.2-7.6-10.3-11.4-15.4-.5-.7-1.1-1.4-1.5-2.2-.4-.9-.6-1.8-.8-2.8-.7-3.2-1.5-6.4-2.2-9.7-.7.3-1.4.7-2.1,1-1.1.5-2.2.8-3.4,1.2-1.3,7.9-4.6,26.9-4.3,25.6-.9,12.5,3.7,24.8,3.2,37.5-3.2,6.3-6.3,12.6-8.7,19.2,4.6,4.1,8.2,9.1,11.8,14.2,6.5,9.1,13,18.4,17.6,28.6.6,0,1.2,0,1.8,0-.5,0-.9,0-1.4,0h2.8-1.4c.6,0,1.3,0,1.9,0,.8-2.4,2.4-6.4,4.8-11.5,1.2-2.6,2.6-5.2,4-7.7h0Z"/>
        <path d="M41.3,47.6s6.5,5.7,15.3,0c0,0-8.2,15-15.3,0Z"/>
      </g>
      <path id="logo" class="st0" d="M62.4,93.7v-2.7s1.1-.5,2.7,0v2.7h2.6s.5,1.3,0,2.7h-2.6v2.6s-1.1.5-2.6,0v-2.6h-2.7s-.4-1.3,0-2.7c0,0,2.7,0,2.7,0Z"/>
    </g>
  </g>
</svg>