<svg width="38" height="38" viewBox="0 0 38 38" fill="none" xmlns="http://www.w3.org/2000/svg">
<g clip-path="url(#clip0_2020_384)">
<path fill-rule="evenodd" clip-rule="evenodd" d="M37.0322 13.5814C36.9633 13.3468 36.8915 13.1141 36.814 12.8835H24.9546V0.98904C24.7252 0.91156 24.4934 0.83928 24.2596 0.77038C22.5649 0.26962 20.7722 0 18.9163 0C17.0603 0 15.2676 0.26962 13.5734 0.77038C13.3393 0.83928 13.1076 0.91156 12.8779 0.98904V12.8835H1.01906C0.941554 13.1136 0.869754 13.3468 0.801064 13.5803C0.302083 15.2802 0.0327606 17.0786 0.0327606 18.9402C0.0327606 20.8021 0.302083 22.6005 0.801064 24.3004C0.869754 24.5349 0.941554 24.7671 1.01932 24.9974H12.8779V36.8919C13.1076 36.9697 13.3399 37.0417 13.5734 37.1108C15.2676 37.6116 17.0603 37.8812 18.9163 37.8812C20.7722 37.8812 22.5649 37.6116 24.2596 37.1108C24.4934 37.0417 24.7252 36.9697 24.9546 36.8919V24.9974H36.8134C36.8915 24.7668 36.9627 24.5344 37.0322 24.2999C37.5309 22.6002 37.7997 20.8018 37.7997 18.9402C37.7997 17.0789 37.5309 15.2805 37.0322 13.5814Z" fill="#284B96"/>
</g>
<defs>
<clipPath id="clip0_2020_384">
<rect width="38" height="38" fill="white"/>
</clipPath>
</defs>
</svg>
