<svg width="197" height="38" viewBox="0 0 197 38" fill="none" xmlns="http://www.w3.org/2000/svg">
<g clip-path="url(#clip0_2020_367)">
<path fill-rule="evenodd" clip-rule="evenodd" d="M125.403 22.917H126.206C127.476 22.917 128.211 22.3135 128.211 20.5034V17.3184C128.211 15.6089 127.643 14.9048 126.206 14.9048H125.403V22.917ZM123.097 12.8597H126.306C128.946 12.8597 130.417 13.9998 130.517 17.0504V20.7715C130.417 23.8218 128.946 24.9619 126.306 24.9619H123.097V12.8597Z" fill="#284B96"/>
<path fill-rule="evenodd" clip-rule="evenodd" d="M135.697 20.369H137.987L136.868 15.4745H136.834L135.697 20.369ZM132.405 24.9619L135.397 12.8597H138.355L141.262 24.9619H139.057L138.471 22.4139H135.28L134.628 24.9619H132.405Z" fill="#284B96"/>
<path fill-rule="evenodd" clip-rule="evenodd" d="M143.485 24.9619V12.8597H146.008L149.217 20.0339H149.25V12.8597H151.356V24.9619H149.15L145.624 17.1508H145.59V24.9619H143.485Z" fill="#284B96"/>
<path fill-rule="evenodd" clip-rule="evenodd" d="M154.531 24.9619V12.8597H157.756L159.845 20.8051H159.878L161.967 12.8597H165.192V24.9619H163.22V15.441H163.187L160.73 24.9619H158.992L156.536 15.441H156.502V24.9619H154.531Z" fill="#284B96"/>
<path fill-rule="evenodd" clip-rule="evenodd" d="M170.707 20.369H172.996L171.877 15.4745H171.844L170.707 20.369ZM167.415 24.9619L170.406 12.8597H173.364L176.272 24.9619H174.066L173.481 22.4139H170.289L169.638 24.9619H167.415Z" fill="#284B96"/>
<path fill-rule="evenodd" clip-rule="evenodd" d="M180.667 18.123H181.853C182.873 18.123 183.491 17.6201 183.491 16.4468C183.491 15.2736 182.873 14.7705 181.853 14.7705H180.667V18.123ZM183.775 24.962L181.77 20.034H180.667V24.962H178.361V12.8598H181.703C184.477 12.8598 185.797 14.2009 185.797 16.4803C185.797 17.9888 185.262 19.0785 183.975 19.5644L186.248 24.962H183.775Z" fill="#284B96"/>
<path fill-rule="evenodd" clip-rule="evenodd" d="M188.488 24.9619V12.8597H190.794V17.8548H190.827L193.818 12.8597H196.342L193.234 17.7376L196.693 24.9619H194.102L191.696 19.8831L190.794 21.2575V24.9619H188.488Z" fill="#284B96"/>
<path fill-rule="evenodd" clip-rule="evenodd" d="M115.032 13.5814C114.963 13.3468 114.891 13.1141 114.814 12.8835H102.955V0.98904C102.725 0.91156 102.493 0.83928 102.26 0.77038C100.565 0.26962 98.7722 0 96.9163 0C95.0603 0 93.2676 0.26962 91.5734 0.77038C91.3393 0.83928 91.1076 0.91156 90.8779 0.98904V12.8835H79.0191C78.9416 13.1136 78.8698 13.3468 78.8011 13.5803C78.3021 15.2802 78.0328 17.0786 78.0328 18.9402C78.0328 20.8021 78.3021 22.6005 78.8011 24.3004C78.8698 24.5349 78.9416 24.7671 79.0193 24.9974H90.8779V36.8919C91.1076 36.9697 91.3399 37.0417 91.5734 37.1108C93.2676 37.6116 95.0603 37.8812 96.9163 37.8812C98.7722 37.8812 100.565 37.6116 102.26 37.1108C102.493 37.0417 102.725 36.9697 102.955 36.8919V24.9974H114.813C114.891 24.7668 114.963 24.5344 115.032 24.2999C115.531 22.6002 115.8 20.8018 115.8 18.9402C115.8 17.0789 115.531 15.2805 115.032 13.5814Z" fill="#284B96"/>
<path fill-rule="evenodd" clip-rule="evenodd" d="M2.30601 23.0648H3.2752C4.47846 23.0648 5.11352 22.3607 5.11352 21.3046C5.11352 20.1481 4.31127 19.5782 3.10827 19.5782H2.30601V23.0648ZM2.30601 17.6672H3.10827C4.14433 17.6672 4.82943 17.064 4.82943 16.2429C4.82943 15.3542 4.31127 14.7843 3.22517 14.7843H2.30601V17.6672ZM7.62939e-05 12.8736H3.24176C5.71515 12.8736 7.13536 13.9128 7.13536 15.9912C7.13536 17.0471 6.61746 17.9189 5.64827 18.5057C6.91815 19.3101 7.41972 19.9807 7.41972 21.4889C7.41972 23.8859 5.81546 24.9758 3.37552 24.9758H7.62939e-05V12.8736Z" fill="#284B96"/>
<path fill-rule="evenodd" clip-rule="evenodd" d="M10.1269 24.9757V12.8735H12.4328V22.9308H16.1426V24.9757H10.1269Z" fill="#284B96"/>
<path fill-rule="evenodd" clip-rule="evenodd" d="M21.1057 10.4934C21.1057 10.9962 21.4733 11.3818 21.9749 11.3818C22.4593 11.3818 22.8769 10.9962 22.8769 10.4934C22.8769 10.0074 22.4593 9.60495 21.9749 9.60495C21.4733 9.60495 21.1057 10.0074 21.1057 10.4934ZM20.8551 20.3827H23.1447L22.0249 15.4882H21.9914L20.8551 20.3827ZM20.2034 10.4934C20.2034 9.52123 20.9888 8.69989 21.9749 8.69989C22.9438 8.69989 23.7795 9.52123 23.7795 10.4934C23.7795 11.4824 22.9438 12.2868 21.9749 12.2868C20.9888 12.2868 20.2034 11.4824 20.2034 10.4934ZM17.5631 24.9756L20.5544 12.8734H23.5122L26.4198 24.9756H24.2139L23.6291 22.4276H20.4372L19.7858 24.9756H17.5631Z" fill="#284B96"/>
<path fill-rule="evenodd" clip-rule="evenodd" d="M33.9901 24.9757V12.8735H36.2963V17.8686H36.3294L39.3207 12.8735H41.8441L38.736 17.7513L42.1951 24.9757H39.6048L37.1986 19.8968L36.2963 21.2712V24.9757H33.9901Z" fill="#284B96"/>
<path fill-rule="evenodd" clip-rule="evenodd" d="M45.9634 21.3885C45.9634 22.7296 46.5484 23.0982 47.4673 23.0982C48.3865 23.0982 48.9712 22.7296 48.9712 21.3885V16.4607C48.9712 15.1196 48.3865 14.7509 47.4673 14.7509C46.5484 14.7509 45.9634 15.1196 45.9634 16.4607V21.3885ZM43.6574 16.7623C43.6574 13.7785 45.2282 12.7058 47.4673 12.7058C49.7064 12.7058 51.2774 13.7785 51.2774 16.7623V21.0869C51.2774 24.0701 49.7064 25.1431 47.4673 25.1431C45.2282 25.1431 43.6574 24.0701 43.6574 21.0869V16.7623Z" fill="#284B96"/>
<path fill-rule="evenodd" clip-rule="evenodd" d="M56.2905 18.1367H57.4772C58.4964 18.1367 59.1149 17.6336 59.1149 16.4608C59.1149 15.2871 58.4964 14.7843 57.4772 14.7843H56.2905V18.1367ZM59.399 24.9758L57.3937 20.0477H56.2905V24.9758H53.9846V12.8735H57.3271C60.1007 12.8735 61.4211 14.2146 61.4211 16.4943C61.4211 18.0026 60.8861 19.0922 59.5996 19.5782L61.8721 24.9758H59.399Z" fill="#284B96"/>
<path fill-rule="evenodd" clip-rule="evenodd" d="M68.9491 16.2428C68.5649 15.1027 68.0633 14.6168 67.2613 14.6168C66.4428 14.6168 65.9912 15.1196 65.9912 15.941C65.9912 17.768 71.1386 17.9021 71.1386 21.6901C71.1386 23.7685 69.7179 25.1431 67.2948 25.1431C65.423 25.1431 63.9694 24.1206 63.3509 21.7405L65.6236 21.2543C65.8909 22.7129 66.7266 23.2324 67.4117 23.2324C68.2139 23.2324 68.8322 22.696 68.8322 21.7907C68.8322 19.511 63.6853 19.4775 63.6853 16.0918C63.6853 14.0136 64.922 12.7058 67.3116 12.7058C69.3672 12.7058 70.6202 13.9296 71.0212 15.6394L68.9491 16.2428Z" fill="#284B96"/>
</g>
<defs>
<clipPath id="clip0_2020_367">
<rect width="197" height="38" fill="white"/>
</clipPath>
</defs>
</svg>
